<svg id="Layer_1" data-name="Layer 1" xmlns="http://www.w3.org/2000/svg" viewBox="0 0 300 173"><defs><style>.cls-1{fill:#22d5ff;}</style></defs><title>Artboard 1</title><path d="M81.23,1.74c50.35,0,80,37.59,80,85.88,0,46.93-29.61,84.51-80,84.51S1.28,134.55,1.28,87.62C1.28,39.33,30.89,1.74,81.23,1.74Zm0,140.32c32.12,0,44.2-27.33,44.2-54.44,0-28.47-12.08-55.81-44.2-55.81S37,59.15,37,87.62C37,114.73,49.12,142.06,81.23,142.06Z"/><path class="cls-1" d="M215.48,149.81C203,166,186.55,172.13,170.84,172.13c-50.35,0-80-37.58-80-84.51,0-48.29,29.61-85.88,80-85.88,33.25,0,64.69,20.5,68.56,57.41H205.23c-4.1-18-17.54-27.34-34.39-27.34-32.12,0-44.19,27.34-44.19,55.81,0,27.11,12.07,54.44,44.19,54.44,23.23,0,36.67-12.53,38.72-35.08h-36V80.33h68.34v87.93H219.13Z"/><path d="M264.24,133.18H300v35.08H264.24Z"/></svg>