<svg id="Layer_1" data-name="Layer 1" xmlns="http://www.w3.org/2000/svg" viewBox="0 0 300 200"><defs><style>.cls-1{fill:#22d5ff;}</style></defs><title>Artboard 1</title><path class="cls-1" d="M199.6,14c24.07,0,42.19,8.1,57.68,22.16a3,3,0,0,1,.23,4.29c-1.19,1.43-2.62,2.86-3.81,4-1.43,1.67-2.62,1.43-4,0a73.3,73.3,0,0,0-50.28-20c-41.47,0-74.12,33.84-74.12,75.06s32.65,75.07,74.12,75.07c29.07,0,47.18-11.2,49.56-13.1V116.71H208.18c-2.62,0-3.09-.95-3.09-3.1v-4.76c0-1.91.47-2.86,3.09-2.86H257a3.12,3.12,0,0,1,3.1,2.86v55.29c0,3.57-1.43,4.76-3.34,6.19-4.29,2.86-26,15.25-57.2,15.25-47.9,0-86.27-37.65-86.27-85.55A85.89,85.89,0,0,1,199.6,14Z"/><path d="M287.07,166.52a9.27,9.27,0,0,1,9.53,9.53,9.41,9.41,0,0,1-9.53,9.53,9.77,9.77,0,0,1-9.77-9.53A9.61,9.61,0,0,1,287.07,166.52Z"/><path d="M136.59,158.78a75.39,75.39,0,1,1,.09-117.72,85,85,0,0,1,7.82-7.36A86,86,0,0,0,3.71,100c0,47.9,38.13,85.55,85.79,85.55a86.3,86.3,0,0,0,55-19.42A85,85,0,0,1,136.59,158.78Z"/></svg>